<svg width="54" height="45" xmlns="http://www.w3.org/2000/svg" xmlns:xlink="http://www.w3.org/1999/xlink" xmlns:svgjs="http://svgjs.com/svgjs" viewBox="0 0.085 54 44.83" fill="#d4d4d4"><svg xmlns="http://www.w3.org/2000/svg" width="54" height="45" viewBox="2 2 53 44"><path paint-order="stroke fill markers" fill-rule="evenodd" d="M22.3 2a221.449 221.449 0 0 0-6.01 3.996c-2.399 1.633-4.671 3.61-6.794 5.93a33.85 33.85 0 0 0-5.309 7.777C2.722 22.603 2 25.805 2 29.328c0 4.984.956 9.024 2.888 12.074C6.82 44.475 10.026 46 14.507 46c2.866 0 5.117-.988 6.773-2.986 1.635-1.977 2.464-4.125 2.464-6.424 0-3.223-.892-5.65-2.676-7.326-1.784-1.676-4.204-2.514-7.304-2.514h-3.61c.297-2.793.807-5.092 1.571-6.875.743-1.762 1.826-3.459 3.228-5.092 1.507-1.719 2.994-3.115 4.438-4.168 1.443-1.031 3.355-2.299 5.712-3.76L22.3 2zm29.897 0a221.345 221.345 0 0 0-6.01 3.996c-2.399 1.633-4.67 3.61-6.794 5.93a33.846 33.846 0 0 0-5.308 7.777c-1.466 2.9-2.188 6.102-2.188 9.625 0 4.984.956 9.024 2.888 12.074C36.718 44.475 39.924 46 44.405 46c2.866 0 5.117-.988 6.773-2.986 1.635-1.977 2.463-4.125 2.463-6.424 0-3.223-.892-5.65-2.676-7.326-1.783-1.676-4.204-2.514-7.304-2.514h-3.61c.298-2.793.807-5.07 1.53-6.832.721-1.74 1.825-3.46 3.27-5.135 1.507-1.719 2.993-3.115 4.437-4.168 1.444-1.031 3.355-2.299 5.712-3.76L52.197 2z"/></svg></svg>